<?xml version="1.0" encoding="utf-8"?>
<!-- Generator: Adobe Illustrator 22.1.0, SVG Export Plug-In . SVG Version: 6.00 Build 0)  -->
<svg version="1.1" id="Layer_1" xmlns="http://www.w3.org/2000/svg" xmlns:xlink="http://www.w3.org/1999/xlink" x="0px" y="0px"
	 viewBox="0 0 67 53.6" style="enable-background:new 0 0 67 53.6;" xml:space="preserve">
<style type="text/css">
	.st0{fill:#222C31;}
</style>
<title>Icons/20×20/Email</title>
<desc>Created with Sketch.</desc>
<g id="Icons_x2F_20_xD7_20_x2F_Email">
	<g id="Email" transform="translate(0.000000, 2.000000)">
		<g id="Shape">
			<path id="path-1_1_" class="st0" d="M10.1,4.7c-1.9,0-3.4,1.5-3.4,3.4v33.5c0,1.9,1.5,3.4,3.4,3.4H57c1.9,0,3.3-1.5,3.3-3.4V8.1
				c0-1.9-1.5-3.4-3.3-3.4H10.1z M10.1-2H57c5.6,0,10,4.5,10,10.1v33.5c0,5.6-4.5,10-10,10H10.1C4.5,51.6,0,47.1,0,41.5V8.1
				C0,2.5,4.5-2,10.1-2z"/>
		</g>
		<path id="Path-2" class="st0" d="M35.5,22.1c1.5,1.1,1.8,3.2,0.7,4.7s-3.2,1.8-4.7,0.7L4.7,7.4C3.2,6.3,2.9,4.2,4,2.7
			S7.2,0.9,8.7,2L35.5,22.1z"/>
		<path id="Path-2_1_" class="st0" d="M35.5,27.5c-1.5,1.1-3.6,0.8-4.7-0.7c-1.1-1.5-0.8-3.6,0.7-4.7L58.3,2
			c1.5-1.1,3.6-0.8,4.7,0.7c1.1,1.5,0.8,3.6-0.7,4.7L35.5,27.5z"/>
	</g>
</g>
</svg>
