<?xml version="1.0" encoding="utf-8"?>
<!-- Generator: Adobe Illustrator 22.1.0, SVG Export Plug-In . SVG Version: 6.00 Build 0)  -->
<svg version="1.1" id="Layer_1" xmlns="http://www.w3.org/2000/svg" xmlns:xlink="http://www.w3.org/1999/xlink" x="0px" y="0px"
	 viewBox="0 0 50 50" style="enable-background:new 0 0 50 50;" xml:space="preserve">
<style type="text/css">
	.st0{fill:#FFFFFF;}
</style>
<title>Icons/20×20/Hamburger</title>
<desc>Created with Sketch.</desc>
<g id="Icons_x2F_20_xD7_20_x2F_Hamburger">
	<g id="Icon-Shape">
		<path id="path-1_1_" class="st0" d="M3.8,7.5C1.7,7.5,0,5.8,0,3.8S1.7,0,3.8,0h42.5C48.3,0,50,1.7,50,3.8s-1.7,3.8-3.8,3.8H3.8z
			 M3.8,50C1.7,50,0,48.3,0,46.2c0-2.1,1.7-3.8,3.8-3.8h42.5c2.1,0,3.8,1.7,3.8,3.8c0,2.1-1.7,3.8-3.8,3.8H3.8z M3.8,28.8
			C1.7,28.8,0,27.1,0,25s1.7-3.8,3.8-3.8h42.5c2.1,0,3.8,1.7,3.8,3.8s-1.7,3.8-3.8,3.8H3.8z"/>
	</g>
</g>
</svg>
