<?xml version="1.0" encoding="utf-8"?>
<!-- Generator: Adobe Illustrator 21.0.0, SVG Export Plug-In . SVG Version: 6.00 Build 0)  -->
<svg version="1.1" id="Capa_1" xmlns="http://www.w3.org/2000/svg" xmlns:xlink="http://www.w3.org/1999/xlink" x="0px" y="0px"
	 width="21.8px" height="31px" viewBox="0 0 21.8 31" style="enable-background:new 0 0 21.8 31;" xml:space="preserve">
<style type="text/css">
	.st0{fill:#FFFFFF;}
</style>
<g>
	<g>
		<g>
			<path class="st0" d="M10.9,0C4.9,0,0,5,0,11.1v8.8C0,26,4.9,31,10.9,31c6,0,10.9-5,10.9-11.1v-8.9C21.8,5,16.9,0,10.9,0z
				 M19.8,19.9c0,5-4,9-8.9,9c-4.9,0-8.9-4.1-8.9-9v-8.8c0-5,4-9,8.9-9c4.9,0,8.9,4.1,8.9,9V19.9z"/>
		</g>
	</g>
	<g>
		<g>
			<path class="st0" d="M10.9,8.5c-0.6,0-1,0.5-1,1v3.6c0,0.6,0.5,1,1,1s1-0.5,1-1V9.5C11.9,8.9,11.5,8.5,10.9,8.5z"/>
		</g>
	</g>
</g>
</svg>
