<?xml version="1.0" encoding="utf-8"?>
<!-- Generator: Adobe Illustrator 22.1.0, SVG Export Plug-In . SVG Version: 6.00 Build 0)  -->
<svg version="1.1" id="Layer_1" xmlns="http://www.w3.org/2000/svg" xmlns:xlink="http://www.w3.org/1999/xlink" x="0px" y="0px"
	 viewBox="0 0 40.5 40.5" style="enable-background:new 0 0 40.5 40.5;" xml:space="preserve">
<style type="text/css">
	.st0{fill:#FFFFFF;}
</style>
<title>Icons/24×24/Search</title>
<desc>Created with Sketch.</desc>
<g id="Icons_x2F_24_xD7_24_x2F_Search">
	<g id="Search">
		<g id="Icon-Shape">
			<path id="path-1_1_" class="st0" d="M17.7,28.7c6.1,0,11-4.9,11-11s-4.9-11-11-11s-11,4.9-11,11S11.7,28.7,17.7,28.7z M29.1,26.5
				l7.8,7.8c0.7,0.7,0.7,1.7,0,2.4c-0.7,0.7-1.7,0.7-2.4,0l-7.8-7.8c-2.5,2-5.6,3.2-9,3.2c-7.9,0-14.3-6.4-14.3-14.3
				S9.8,3.4,17.7,3.4s14.3,6.4,14.3,14.3C32.1,21,31,24,29.1,26.5z"/>
		</g>
	</g>
</g>
</svg>
