<svg id="Layer_1" data-name="Layer 1" xmlns="http://www.w3.org/2000/svg" viewBox="0 0 26 26"><defs><style>.cls-1{fill:#1a171b;}.cls-2{fill:#fff;}</style></defs><title>galeri-petronas-social-media-icon</title><circle class="cls-1" cx="13.1" cy="12.99" r="12"/><path class="cls-2" d="M13.1,9.42A3.58,3.58,0,1,0,16.67,13,3.57,3.57,0,0,0,13.1,9.42Zm0,5.9A2.33,2.33,0,1,1,15.42,13a2.33,2.33,0,0,1-2.32,2.33Zm4.55-6a.84.84,0,0,1-1.67,0,.85.85,0,0,1,.84-.84A.84.84,0,0,1,17.65,9.28Zm2.37.84A4.17,4.17,0,0,0,18.89,7.2,4.13,4.13,0,0,0,16,6.08c-1.15-.07-4.6-.07-5.75,0A4.12,4.12,0,0,0,7.3,7.2a4.08,4.08,0,0,0-1.12,2.92c-.07,1.15-.07,4.6,0,5.75A4.12,4.12,0,0,0,7.3,18.79a4.16,4.16,0,0,0,2.92,1.12c1.15.07,4.6.07,5.75,0a4.08,4.08,0,0,0,2.92-1.12A4.21,4.21,0,0,0,20,15.87c.06-1.15.06-4.6,0-5.75Zm-1.49,7a2.35,2.35,0,0,1-1.33,1.33,15.45,15.45,0,0,1-4.1.28A15.49,15.49,0,0,1,9,18.43,2.36,2.36,0,0,1,7.67,17.1,15.09,15.09,0,0,1,7.39,13a15.45,15.45,0,0,1,.28-4.1A2.36,2.36,0,0,1,9,7.56a15.52,15.52,0,0,1,4.11-.28,15.45,15.45,0,0,1,4.1.28,2.38,2.38,0,0,1,1.33,1.33,15.45,15.45,0,0,1,.28,4.1A15.49,15.49,0,0,1,18.53,17.1Z"/></svg>