<svg id="Layer_1" data-name="Layer 1" xmlns="http://www.w3.org/2000/svg" viewBox="0 0 26 26"><defs><style>.cls-1{fill:#1a171b;}.cls-2{fill:#fff;}</style></defs><title>galeri-petronas-social-media-icon</title><circle class="cls-1" cx="13" cy="12.99" r="12"/><path class="cls-2" d="M12,8.75a4.51,4.51,0,0,1,4.63,1.74l-8,1.81A4.32,4.32,0,0,1,12,8.75Zm4.67,6.63A4.35,4.35,0,0,1,14,17.19a4.46,4.46,0,0,1-4.64-1.76l8-1.81,1.3-.29,2.5-.56a9.1,9.1,0,0,0-.2-1.58,8.17,8.17,0,0,0-9.81-6A8,8,0,0,0,5,14.8a8.24,8.24,0,0,0,15.44,1.48l-3.8-.9Z"/></svg>