<svg id="Layer_1" data-name="Layer 1" xmlns="http://www.w3.org/2000/svg" viewBox="0 0 26 26"><defs><style>.cls-1{fill:#1a171b;}.cls-2{fill:#fff;}</style></defs><title>galeri-petronas-social-media-icon</title><circle class="cls-1" cx="13.14" cy="12.99" r="12"/><path class="cls-2" d="M19.61,9.73a1.73,1.73,0,0,0-1.2-1.2,40.56,40.56,0,0,0-5.27-.28,40.7,40.7,0,0,0-5.28.28,1.73,1.73,0,0,0-1.2,1.2A17.92,17.92,0,0,0,6.38,13a18,18,0,0,0,.28,3.28,1.7,1.7,0,0,0,1.2,1.18,40.7,40.7,0,0,0,5.28.28,40.56,40.56,0,0,0,5.27-.28,1.7,1.7,0,0,0,1.2-1.18A18,18,0,0,0,19.89,13,17.92,17.92,0,0,0,19.61,9.73ZM11.75,15V11l3.54,2-3.54,2Z"/></svg>