<?xml version="1.0" encoding="utf-8"?>
<!-- Generator: Adobe Illustrator 22.0.1, SVG Export Plug-In . SVG Version: 6.00 Build 0)  -->
<svg version="1.1" id="Layer_1" xmlns="http://www.w3.org/2000/svg" xmlns:xlink="http://www.w3.org/1999/xlink" x="0px" y="0px"
	 viewBox="0 0 150 150" style="enable-background:new 0 0 150 150;" xml:space="preserve">
<style type="text/css">
	.st0{fill:#15978F;}
	.st1{display:none;fill:#FFFFFF;}
	.st2{display:none;}
	.st3{display:inline;}
	.st4{fill:#FFFFFF;}
	.st5{display:inline;fill:#FFFFFF;}
	.st6{display:inline;fill:none;stroke:#FFFFFF;stroke-miterlimit:10;}
	.st7{display:inline;fill:none;stroke:#D31C1C;stroke-miterlimit:10;}
</style>
<rect x="-5" y="-5" class="st0" width="161" height="161"/>
<path class="st1" d="M130.4,78v-7.9h-0.1h-9.9v-7.9h-8.6v-8.6h0h-4.9l0.4,0l-1.5-14.4h1.2v-2.7h-3.9v-1.5h0v-3.8
	c0-1-0.8-1.7-1.7-1.7c-1,0-1.7,0.8-1.7,1.7v5.4h-4.2v2.7h1.4l-1.6,14.4h-4.9v16.5H82v0c0,0,0,0,0,0H17.6c-1,0-1.7,0.8-1.7,1.7
	c0,1,0.8,1.7,1.7,1.7h2.8V78h-2.7l14.6,42.8h86.8L133.7,78H130.4z M93.7,73.6h5.7v3h-5.7V73.6z M108.3,76.6h-5.4v-3h5.4V76.6z
	 M111.8,76.6v-3h5.1v3H111.8z M108.3,70.1h-5.4v-4.5h5.4V70.1z M99.4,70.1h-5.7v-4.5h5.7V70.1z M126.8,73.6v3h-6.4v-3H126.8z
	 M116.9,65.7v4.5h-5.1v-4.5H116.9z M108.3,62.2h-5.4v-5.1h5.4V62.2z M100.2,39.2h2.1l1.5,14.4h-4.4h-0.8L100.2,39.2z M99.4,57.1v5.1
	h-5.7v-5.1H99.4z M85.5,73.6h4.7v3h-4.7V73.6z M23.9,73.6h58.1c0,0,0,0,0,0V78H23.9V73.6z M116.6,117.3H34.8L22.6,81.5h106.3
	L116.6,117.3z"/>
<g class="st2">
	<g class="st3">
		<path class="st4" d="M43.2,28.7c-0.2-1.6-1.6-2.8-3.3-2.8c-1.7,0-3,1.2-3.3,2.8h-9v0.3c0,2.6,2.1,4.7,4.7,4.7h15.1
			c2.6,0,4.7-2.1,4.7-4.7v-0.3H43.2z"/>
	</g>
	<path class="st5" d="M126.6,39c-4.2,0-7.6-3.4-7.6-7.6c0-4.2,3.4-7.6,7.6-7.6c4.2,0,7.6,3.4,7.6,7.6C134.1,35.6,130.8,39,126.6,39z
		 M126.6,27.2c-2.3,0-4.2,1.9-4.2,4.2s1.9,4.2,4.2,4.2c2.3,0,4.2-1.9,4.2-4.2S128.9,27.2,126.6,27.2z"/>
	<g class="st3">
		<rect x="121.3" y="63.9" class="st4" width="10.5" height="6.1"/>
	</g>
	<path class="st5" d="M128.1,82.9c-3.4,0-6.4-2.8-6.4-5.9c0-0.9,0.8-1.7,1.7-1.7s1.7,0.8,1.7,1.7c0,1.3,1.5,2.6,3.1,2.6
		c1.4,0,2.6-1.2,2.6-2.6s-1.2-2.6-2.6-2.6H125v-5.8c0-0.9,0.8-1.7,1.7-1.7s1.7,0.8,1.7,1.7v2.5c3.2,0.1,5.7,2.7,5.7,5.9
		C134.1,80.3,131.4,82.9,128.1,82.9z"/>
	<g class="st3">
		<rect x="18.3" y="86.7" class="st4" width="91.3" height="7.3"/>
	</g>
	<polygon class="st5" points="103,87 99.7,87 99.7,75.4 63.4,75.4 63.4,87 60.1,87 60.1,72 103,72 	"/>
	<polygon class="st5" points="86.1,73.6 82.8,73.6 82.8,56 99.3,56 99.3,73.6 95.9,73.6 95.9,59.3 86.1,59.3 	"/>
	<path class="st5" d="M81.6,125.7c-2.6,0-5-0.6-8.1-3.7c-2.3-2.3-4.6-2.2-4.7-2.1l-0.1,0l-0.2,0c-0.1,0-2-0.1-3.8,1.7
		c-2.1,2.1-4.7,4.2-8.3,4.2c-3.3,0-5.5-0.9-8-3.5c-1.8-1.8-5-1.9-5-1.9l-0.2,0c0,0-2.6-0.3-4.2,1.4c-2.2,2.4-5.4,4-8.1,4
		c-2.1,0-5.1-0.3-7.6-2.9c-1.4-1.4-3.9-2.2-4.8-2.4c-0.9-0.2-1.5-1.1-1.3-2c0.2-0.9,1.1-1.5,2-1.3c0.2,0,4.2,0.9,6.5,3.4
		c1.6,1.6,3.5,1.9,5.2,1.9c1.4,0,3.8-0.9,5.6-2.9c2.5-2.7,6.2-2.5,6.9-2.4c0.7,0,4.7,0.3,7.3,2.9c2.1,2.1,3.5,2.5,5.6,2.5
		c2,0,3.6-0.9,6-3.2c2.6-2.6,5.7-2.7,6.4-2.6c0.8,0,4.1,0.1,7.2,3.1c2.5,2.5,4.1,2.7,5.7,2.7c1.6,0,3.9-1.2,5.4-2.7
		c1.7-1.7,4.2-2.7,7-2.7c1.3,0,4.7,0.3,7.1,2.7c1.8,1.8,3.8,2.6,6.2,2.6c2.5,0,3.9-1.5,5.1-2.6c1.8-1.8,4.4-2.8,7.2-2.8
		c0.9,0,1.7,0.8,1.7,1.7c0,0.9-0.8,1.7-1.7,1.7c-2.7,0-4.2,1.1-4.8,1.7c-1.4,1.4-3.7,3.7-7.5,3.7c-3.3,0-6.1-1.2-8.5-3.6
		c-1.5-1.5-3.8-1.7-4.8-1.7c-1.9,0-3.5,0.6-4.6,1.7C87.2,124.3,84,125.7,81.6,125.7z"/>
	<rect x="22.5" y="93.8" class="st5" width="3.4" height="27.5"/>
	<rect x="30.6" y="93.8" class="st5" width="3.4" height="30"/>
	<rect x="58.8" y="93.8" class="st5" width="3.4" height="29"/>
	<rect x="66.9" y="93.8" class="st5" width="3.4" height="24.4"/>
	<rect x="93.5" y="93.8" class="st5" width="3.4" height="25"/>
	<rect x="101.5" y="93.8" class="st5" width="3.4" height="29.4"/>
	
		<rect x="2.4" y="59.4" transform="matrix(0.1474 -0.9891 0.9891 0.1474 -34.3879 80.6315)" class="st5" width="54.3" height="1.7"/>
	<rect x="49.6" y="33.1" transform="matrix(0.989 -0.1479 0.1479 0.989 -8.3597 8.1304)" class="st5" width="1.7" height="54.3"/>
	<rect x="39.1" y="33.4" class="st5" width="1.7" height="53.6"/>
	<rect x="30.6" y="52.5" class="st5" width="18.7" height="1.7"/>
	<path class="st6" d="M51.7,68.6"/>
	<path class="st6" d="M28.4,68.6"/>
	<path class="st5" d="M39.9,90L29.7,53.3L40,31.4l10.3,21.8L39.9,90z M31.5,53.4l8.4,30.4l8.5-30.4l-8.5-18L31.5,53.4z"/>
	<rect x="49.3" y="28.6" class="st5" width="71.8" height="3.4"/>
	<path class="st7" d="M121.2,33.3"/>
	<path class="st7" d="M47.8,33.3"/>
	<rect x="122" y="34.8" transform="matrix(0.9939 -0.1104 0.1104 0.9939 -4.7006 13.9631)" class="st5" width="3.4" height="29.3"/>
	
		<rect x="114.8" y="47.7" transform="matrix(0.1104 -0.9939 0.9939 0.1104 66.0043 172.5847)" class="st5" width="29.3" height="3.4"/>
	<rect x="67.1" y="78.8" class="st5" width="6.1" height="3.4"/>
	<rect x="78.2" y="78.8" class="st5" width="6.1" height="3.4"/>
	<rect x="89.3" y="78.8" class="st5" width="6.1" height="3.4"/>
	<polygon class="st5" points="39.8,56 32.6,33.4 34.2,32.9 39.8,50.5 45.4,33 47,33.5 	"/>
	<polygon class="st5" points="26.5,87.6 24.9,86.9 39.8,51.1 55.1,86.9 53.6,87.5 39.8,55.4 	"/>
</g>
<g class="st2">
	<g class="st3">
		<g>
			<path class="st4" d="M52,78.6c-1.8,4.9-6.2,6.7-9.9,6.7c-7.2,0-11.8-7-11.8-14.7c0-7,3.8-14.6,11.7-14.6c3.6,0,8.1,1.5,10.1,6.6
				l8.6-6C57.5,50.3,50.8,46,42.2,46c-14.8,0-23.4,12.4-23.4,24.1c0,12.5,9.5,25.1,23,25.1c7.7,0,16.6-4.1,19.4-11.3L52,78.6z"/>
		</g>
	</g>
	<g class="st3">
		<g>
			<path class="st4" d="M87,46c-13.5,0-23.3,11.6-23.3,24.5c0,12.5,9.3,24.8,23.1,24.8c13.5,0,23.3-11.8,23.3-24.6
				C110,58.4,100.9,46,87,46z M86.9,85.3c-7.7,0-11.8-7.2-11.8-14.6c0-7.3,4-14.6,11.8-14.6c7.5,0,11.8,7,11.8,14.5
				C98.6,77.7,94.7,85.3,86.9,85.3z"/>
		</g>
	</g>
	<g class="st3">
		<g>
			<path class="st4" d="M122.7,97.9c0-1.5,2.3-2.7,4.4-3.9c3.2-1.9,5-3.6,5-7.6c0-5.2-3.3-8.2-9.1-8.2c-4.7,0-8.5,1.9-10.4,4
				l4.2,4.5c1.4-1.3,3.4-2.6,5.3-2.6c1.2,0,2.3,0.5,2.3,2.3c0,2.6-2.6,3.9-5.5,5.3c-5.4,2.6-6.2,5.6-6.2,12.2h19.6v-6.1H122.7z"/>
		</g>
	</g>
</g>
<g class="st2">
	<path class="st5" d="M95.9,124.7H92V87.1c0-14.7,11.9-26.6,26.6-26.6v3.9c-12.5,0-22.7,10.2-22.7,22.7V124.7z"/>
	<path class="st5" d="M49.5,41.6v16h12.9C78.7,57.6,92,70.8,92,87.1v37.7h-9.7V87.1c0-10.9-8.9-19.8-19.8-19.8H49.5v16L28.7,62.4
		L49.5,41.6 M53.4,32.2l-6.6,6.6L26,59.7l-2.7,2.7l2.7,2.7L46.8,86l6.6,6.6v-9.3V71.1h9.1c8.8,0,16,7.2,16,16v37.7v3.9h3.9H92h3.9
		v-3.9V87.1c0-18.4-15-33.4-33.4-33.4h-9.1V41.6V32.2L53.4,32.2z"/>
	<polygon class="st5" points="96.2,30.7 87,21.6 77.9,30.7 	"/>
	<polygon class="st5" points="117.2,71.6 126.3,62.3 117,53.3 	"/>
	<rect x="85.2" y="29.7" class="st5" width="3.9" height="37.6"/>
</g>
<g class="st2">
	<path class="st5" d="M75.3,100c-22.2,0-40.2-18-40.2-40.2s18-40.2,40.2-40.2s40.2,18,40.2,40.2S97.5,100,75.3,100z M75.3,23.5
		c-20,0-36.3,16.3-36.3,36.3s16.3,36.3,36.3,36.3s36.3-16.3,36.3-36.3S95.4,23.5,75.3,23.5z"/>
	<path class="st5" d="M100.1,61.7c-1.1,0-1.9-0.9-1.9-1.9c0-12.6-10.3-22.9-22.9-22.9S52.5,47.2,52.5,59.8c0,1.1-0.9,1.9-1.9,1.9
		s-1.9-0.9-1.9-1.9c0-14.7,12-26.7,26.7-26.7s26.7,12,26.7,26.7C102.1,60.9,101.2,61.7,100.1,61.7z"/>
	<path class="st5" d="M75.3,82.6c-5.5,0-9.9-4.4-9.9-9.9s4.4-9.9,9.9-9.9c5.5,0,9.9,4.4,9.9,9.9S80.8,82.6,75.3,82.6z M75.3,66.6
		c-3.3,0-6.1,2.7-6.1,6.1s2.7,6.1,6.1,6.1c3.3,0,6.1-2.7,6.1-6.1S78.7,66.6,75.3,66.6z"/>
	<path class="st5" d="M79.3,67.7c-0.3,0-0.6-0.1-0.9-0.2c-0.9-0.5-1.3-1.7-0.7-2.6l8.1-14.3c0.5-0.9,1.7-1.3,2.6-0.7
		c0.9,0.5,1.3,1.7,0.7,2.6l-8.1,14.3C80.6,67.3,79.9,67.7,79.3,67.7z"/>
	<polygon class="st5" points="92.9,115.2 57.8,115.2 57.8,95 61.6,95 61.6,111.3 89.1,111.3 89.1,95 92.9,95 	"/>
	<path class="st5" d="M76,130.8h-1.3c-4.5,0-8.2-3.7-8.2-8.2v-9.3h3.8v9.3c0,2.4,2,4.4,4.4,4.4H76c2.4,0,4.4-2,4.4-4.4v-9.3h3.8v9.3
		C84.2,127.1,80.5,130.8,76,130.8z"/>
</g>
<g>
	<path class="st4" d="M124.4,125.2H25.6c-1.1,0-1.9-0.9-1.9-1.9s0.9-1.9,1.9-1.9h98.8c1.1,0,1.9,0.9,1.9,1.9
		S125.5,125.2,124.4,125.2z"/>
	<path class="st4" d="M82,99.5H26.6V85.6H82V99.5z M30.5,95.6h47.6v-6.1H30.5V95.6z"/>
	<rect x="76.3" y="97.7" class="st4" width="3.9" height="25.3"/>
	<path class="st4" d="M54.2,125.1c-1.1,0-1.9-0.9-1.9-1.9v-16.4c0-1.1,0.9-1.9,1.9-1.9c1.1,0,1.9,0.9,1.9,1.9v16.4
		C56.2,124.2,55.3,125.1,54.2,125.1z"/>
	<path class="st4" d="M32.8,87.9L29,87.1c2-8.9,8.4-16,17-18.9v-4.1h16.6v4.1c8.5,2.9,15,10,17,18.8l-3.8,0.9
		C74,80,68,73.7,60.1,71.5l-1.4-0.4V68h-8.9v3.2l-1.4,0.4C40.5,73.7,34.5,80,32.8,87.9z"/>
	<path class="st4" d="M54.3,118.7c-12.3,0-23-8.8-25.4-20.8l3.8-0.8c2,10.2,11.1,17.7,21.6,17.7c10.4,0,19.5-7.4,21.6-17.6l3.8,0.8
		C77.2,110,66.5,118.7,54.3,118.7z"/>
	<rect x="28.4" y="51.1" class="st4" width="3.9" height="36.3"/>
	<polygon class="st4" points="42,125.2 28.4,125.2 28.4,97.5 32.3,97.5 32.3,121.3 38.1,121.3 38.1,112 42,112 	"/>
	<rect x="38.1" y="51.2" class="st4" width="3.9" height="22.2"/>
	<polygon class="st4" points="42,44.4 38.1,44.4 38.1,38.9 32.3,38.9 32.3,44.4 28.4,44.4 28.4,35 42,35 	"/>
	<path class="st4" d="M45.2,53.2h-20V42.6h20V53.2z M29.1,49.3h12.2v-2.8H29.1V49.3z"/>
	<path class="st4" d="M121.6,125.1h-13.3V36.9h13.3V125.1z M112.2,121.2h5.5V40.8h-5.5V121.2z"/>
	<path class="st4" d="M123.8,70.6h-17.6c-1.1,0-1.9-0.9-1.9-1.9c0-1.1,0.9-1.9,1.9-1.9h17.6c1.1,0,1.9,0.9,1.9,1.9
		C125.7,69.7,124.8,70.6,123.8,70.6z"/>
	<polygon class="st4" points="91.4,123 87.5,123 87.5,49 110.1,49 110.1,52.9 91.4,52.9 	"/>
	<path class="st4" d="M110.2,62.6H86.4c-1.1,0-1.9-0.9-1.9-1.9c0-1.1,0.9-1.9,1.9-1.9h23.8c1.1,0,1.9,0.9,1.9,1.9
		C112.2,61.7,111.3,62.6,110.2,62.6z"/>
	<path class="st4" d="M110.2,89.8H86.4c-1.1,0-1.9-0.9-1.9-1.9s0.9-1.9,1.9-1.9h23.8c1.1,0,1.9,0.9,1.9,1.9S111.3,89.8,110.2,89.8z"
		/>
	<rect x="60.6" y="66.4" class="st4" width="28.6" height="3.9"/>
	<path class="st4" d="M101,51h-3.9V33.4c0-4.5,3.7-8.2,8.2-8.2h3.3c4.5,0,8.2,3.7,8.2,8.2v5.5H113v-5.5c0-2.4-1.9-4.3-4.3-4.3h-3.3
		c-2.4,0-4.3,1.9-4.3,4.3V51z"/>
	<path class="st4" d="M56.4,65.9h-3.9v-5.5c0-4.2,3.4-7.6,7.6-7.6h29.3v3.9H60.2c-2.1,0-3.8,1.7-3.8,3.8V65.9z"/>
</g>
</svg>
