<svg id="Layer_1" data-name="Layer 1" xmlns="http://www.w3.org/2000/svg" viewBox="0 0 157.83 152.08"><defs><style>.cls-1{fill:#15978f;}.cls-2{fill:#fff;}</style></defs><title>achievements</title><rect class="cls-1" width="157.83" height="152.08"/><path class="cls-2" d="M115.89,112.9,105.42,99.44a15.13,15.13,0,0,0,8.28-6.13c2.47-4.26,1.35-9.46.27-14.48A39.55,39.55,0,0,1,112.81,71,39.76,39.76,0,0,1,114,63.06c1.07-5,2.2-10.22-.27-14.48S106,42.54,101,41a36.69,36.69,0,0,1-7.16-2.8,35.37,35.37,0,0,1-5.73-4.64c-3.68-3.42-7.87-7.3-13.19-7.3s-9.5,3.88-13.19,7.3A35.47,35.47,0,0,1,56,38.16,36.85,36.85,0,0,1,48.89,41c-5,1.57-10.12,3.21-12.67,7.62S34.87,58,36,63.06A39.76,39.76,0,0,1,37.11,71,39.55,39.55,0,0,1,36,78.83c-1.07,5-2.2,10.23.27,14.48a15.15,15.15,0,0,0,8.29,6.13L34,112.9a1.73,1.73,0,0,0,.31,2.42,1.69,1.69,0,0,0,1.27.34l12.3-1.53,3,10.62A1.71,1.71,0,0,0,52.27,126a1.84,1.84,0,0,0,.33,0,1.72,1.72,0,0,0,1.36-.66l11-14.14a15.9,15.9,0,0,0,10,4.48,15.88,15.88,0,0,0,10-4.48l11,14.13a1.71,1.71,0,0,0,1.36.67l.32,0A1.71,1.71,0,0,0,99,124.75l3-10.62,12.31,1.54a1.73,1.73,0,0,0,1.92-1.5A1.76,1.76,0,0,0,115.89,112.9Zm-62.57,7.65-2.51-8.79a1.73,1.73,0,0,0-1.87-1.23l-9.63,1.2,8.63-11.09,1,.3A37.2,37.2,0,0,1,56,103.73a35.1,35.1,0,0,1,5.73,4.65l.59.55ZM75,112.24c-4,0-7.32-3.1-10.86-6.38a37.55,37.55,0,0,0-6.34-5.11,40.07,40.07,0,0,0-7.84-3.09c-4.54-1.45-8.84-2.81-10.72-6.07s-.87-7.45.11-12A41.69,41.69,0,0,0,40.55,71a41.59,41.59,0,0,0-1.24-8.6c-1-4.59-1.91-8.93-.11-12.05s6.18-4.62,10.73-6.06a39.64,39.64,0,0,0,7.83-3.1A38,38,0,0,0,64.1,36C67.64,32.76,71,29.66,75,29.66s7.32,3.1,10.86,6.38a38,38,0,0,0,6.34,5.1,39.49,39.49,0,0,0,7.84,3.1c4.54,1.44,8.84,2.81,10.73,6.06s.87,7.45-.12,12.05a41.59,41.59,0,0,0-1.24,8.6,41.69,41.69,0,0,0,1.24,8.6c1,4.59,1.91,8.93.11,12s-6.18,4.62-10.72,6.07a40.07,40.07,0,0,0-7.84,3.09,38,38,0,0,0-6.34,5.11C82.28,109.14,78.93,112.24,75,112.24Zm26-1.71a1.73,1.73,0,0,0-1.87,1.23l-2.52,8.79-9-11.62.6-.55a35.46,35.46,0,0,1,5.72-4.65,37.46,37.46,0,0,1,7.15-2.79l1-.3,8.63,11.09Z" transform="translate(4.54 1.17)"/><path class="cls-2" d="M75,40a31,31,0,1,0,31,31A31,31,0,0,0,75,40Zm0,58.49A27.53,27.53,0,1,1,102.49,71,27.52,27.52,0,0,1,75,98.47Z" transform="translate(4.54 1.17)"/><path class="cls-2" d="M94.81,63.76A3.43,3.43,0,0,0,92,62.35H81.5l-3.27-10a3.45,3.45,0,0,0-6.54,0l-3.26,10H57.89a3.44,3.44,0,0,0-2,6.22l8.53,6.19-3.26,10a3.44,3.44,0,0,0,5.3,3.84L75,82.44l8.53,6.2a3.44,3.44,0,0,0,5.29-3.85l-3.25-10,8.52-6.19A3.44,3.44,0,0,0,94.81,63.76Zm-12.32,9a1.71,1.71,0,0,0-.62,1.92l3.64,11.21L76,78.92a1.74,1.74,0,0,0-2,0l-9.54,6.93,3.64-11.21a1.72,1.72,0,0,0-.62-1.92l-9.54-6.93H69.68a1.72,1.72,0,0,0,1.64-1.19L75,53.39,78.6,64.6a1.73,1.73,0,0,0,1.64,1.19H92Z" transform="translate(4.54 1.17)"/></svg>