<svg id="Layer_1" data-name="Layer 1" xmlns="http://www.w3.org/2000/svg" viewBox="0 0 157.83 152.08"><defs><style>.cls-1{fill:#15978f;}.cls-2{fill:#fff;}</style></defs><title>gas-and-infrastructure</title><rect class="cls-1" width="157.83" height="152.08"/><path class="cls-2" d="M69.82,29.14a2.69,2.69,0,0,1,2.4,1.43l9,16.85,3.31-5.16a3.07,3.07,0,0,1,5.31.22C98.26,58.33,107.06,78.29,107.06,88a31.83,31.83,0,0,1-63.65,0c0-12.46,14.59-41.64,24.08-57.57a2.68,2.68,0,0,1,2.33-1.32m0-3.95h0a6.61,6.61,0,0,0-5.72,3.25C57.25,39.94,39.47,73.07,39.47,88A35.77,35.77,0,1,0,111,88c0-12.67-12.33-37.37-17.63-47.4a7,7,0,0,0-11.79-1l-5.88-11a6.66,6.66,0,0,0-5.88-3.52Z" transform="translate(4.54 1.17)"/><path class="cls-2" d="M80.53,70.21,69.11,90,64.72,83a1,1,0,0,0-1.75.17,26.18,26.18,0,0,0-2,8.1,14.65,14.65,0,0,0,29.3,0c0-4.48-4.06-13.68-7.92-21A1,1,0,0,0,80.53,70.21Z" transform="translate(4.54 1.17)"/><path class="cls-2" d="M105.39,125.13H43.64a2,2,0,1,1,0-3.95h61.75a2,2,0,1,1,0,3.95Z" transform="translate(4.54 1.17)"/></svg>