<svg id="Layer_1" data-name="Layer 1" xmlns="http://www.w3.org/2000/svg" viewBox="0 0 157.83 152.08"><defs><style>.cls-1{fill:#15978f;}.cls-2{fill:#fff;}</style></defs><title>our-offerings</title><rect class="cls-1" width="157.83" height="152.08"/><path class="cls-2" d="M113.31,67.65a5.34,5.34,0,0,0-10.06,0h-11V60.54h7.14a1.79,1.79,0,0,0,1.78-1.79h0V51.29a5.36,5.36,0,1,0-3.56,0V57H92.21V53.4a1.78,1.78,0,0,0-1.78-1.78H86.86V42.37a5.35,5.35,0,1,0-3.57,0v9.25H76.16V23.14a1.79,1.79,0,0,0-1.78-1.79h0c-22,0-39.24,15.94-39.24,36.28,0,9.66,3.83,22.45,10,33.38,1.11,2,2.55,4,4.09,6.21,3.23,4.61,6.84,9.8,7.23,14.32a5.06,5.06,0,0,0-2.14,4.24,5.28,5.28,0,0,0,1.18,3.31,5.47,5.47,0,0,0-1.64,4,5.36,5.36,0,0,0,5.35,5.35H89.54A5.39,5.39,0,0,0,94.89,123v-.06a5.3,5.3,0,0,0-1.64-3.84,5.5,5.5,0,0,0,1.18-3.42,5.11,5.11,0,0,0-5.12-5.11H76.16v-34h3.57v5.35a1.78,1.78,0,0,0,1.78,1.79h5.35v2.11a5.35,5.35,0,1,0,3.57,0v-3.9a1.78,1.78,0,0,0-1.78-1.78H83.29V76.59h7.14a1.78,1.78,0,0,0,1.78-1.78h0V71.24h11a5.34,5.34,0,1,0,10.06-3.59Zm-14-23.17a1.79,1.79,0,1,1-1.78,1.79A1.79,1.79,0,0,1,99.35,44.48ZM52.15,95.17c-1.48-2.11-2.88-4.11-3.91-5.92C42.44,79,38.7,66.57,38.7,57.63,38.7,39.84,53.44,25.78,72.59,25V37.42c-.47,0-1,.08-1.47.14A1.79,1.79,0,0,0,69.59,39L69,41.55l-1.34.36-1.77-2a1.79,1.79,0,0,0-2-.45,26.49,26.49,0,0,0-5.61,3.28,1.79,1.79,0,0,0-.63,2l.82,2.49-1,1L55,47.39A1.81,1.81,0,0,0,53,48a26.81,26.81,0,0,0-3.28,5.62,1.79,1.79,0,0,0,.45,2l2,1.77c-.13.45-.25.89-.36,1.33l-2.77.55a1.79,1.79,0,0,0-1.43,1.75v6.09a1.79,1.79,0,0,0,1.43,1.75l2.77.55c.11.44.23.88.36,1.33l-2,1.77a1.79,1.79,0,0,0-.45,2A26.81,26.81,0,0,0,53,80.2a1.81,1.81,0,0,0,2,.62L57.5,80l1,1-.82,2.49a1.81,1.81,0,0,0,.62,2,26.81,26.81,0,0,0,5.62,3.28,1.79,1.79,0,0,0,2-.45l1.77-2,1.34.36.55,2.58a1.79,1.79,0,0,0,1.53,1.41c.51.06,1,.1,1.47.14v19.76H60C59.22,105.29,55.5,99.94,52.15,95.17ZM58.32,64.1a16.06,16.06,0,0,0,14.27,16v6.14l-.29-1.4a1.77,1.77,0,0,0-1.43-1.39,20.68,20.68,0,0,1-3.11-.84,1.83,1.83,0,0,0-.61-.11,1.76,1.76,0,0,0-1.32.6l-1.68,1.87a23.38,23.38,0,0,1-2.69-1.58L62.24,81a1.79,1.79,0,0,0-.55-1.92,19.64,19.64,0,0,1-2.28-2.28,1.81,1.81,0,0,0-1.92-.54L55.14,77a23.38,23.38,0,0,1-1.58-2.69l1.87-1.68a1.77,1.77,0,0,0,.49-1.93,20.68,20.68,0,0,1-.84-3.11,1.78,1.78,0,0,0-1.4-1.43l-2.5-.5V62.53l2.5-.5a1.77,1.77,0,0,0,1.4-1.43,20.68,20.68,0,0,1,.84-3.11,1.79,1.79,0,0,0-.49-1.94l-1.87-1.67a23.38,23.38,0,0,1,1.58-2.69l2.35.78a1.81,1.81,0,0,0,1.92-.54,19.05,19.05,0,0,1,2.29-2.29,1.8,1.8,0,0,0,.54-1.91l-.78-2.36a23.38,23.38,0,0,1,2.69-1.58l1.68,1.87a1.77,1.77,0,0,0,1.93.49,20.68,20.68,0,0,1,3.11-.84,1.75,1.75,0,0,0,1.42-1.38l.3-1.41v6.13A16.07,16.07,0,0,0,58.32,64.1ZM72.59,51.76V76.45a12.47,12.47,0,0,1,0-24.69ZM91.32,123a1.78,1.78,0,0,1-1.78,1.78H59.21A1.81,1.81,0,0,1,57.43,123v-.06a1.78,1.78,0,0,1,1.78-1.78H89.54A1.8,1.8,0,0,1,91.32,123Zm-2.24-8.92a1.63,1.63,0,0,1,1.78,1.47c0,.07,0,.13,0,.19a1.79,1.79,0,0,1-1.79,1.78H59.67a1.81,1.81,0,0,1-1.79-1.85v-.06a1.61,1.61,0,0,1,1.68-1.54H89.08Zm-.43-25a1.79,1.79,0,1,1-1.79,1.78A1.78,1.78,0,0,1,88.65,89.08ZM85.08,35.56a1.79,1.79,0,1,1-1.79,1.79A1.79,1.79,0,0,1,85.08,35.56ZM88.65,73H76.16V55.19H88.65Zm19.62-1.78a1.79,1.79,0,1,1,1.78-1.78A1.79,1.79,0,0,1,108.27,71.24Z" transform="translate(4.54 1.17)"/><path class="cls-2" d="M91.58,102.9a30,30,0,0,0-1.67,3.48l3.32,1.32a26.35,26.35,0,0,1,1.47-3.08Z" transform="translate(4.54 1.17)"/><path class="cls-2" d="M95.59,96.61c-.7,1-1.4,2-2.07,3.07l3,1.94c.64-1,1.32-2,2-3Z" transform="translate(4.54 1.17)"/><path class="cls-2" d="M99.65,90.68c-.6.95-1.27,1.94-2,3l2.93,2c.74-1.06,1.44-2.09,2.07-3.09Z" transform="translate(4.54 1.17)"/><path class="cls-2" d="M103,84.46c-.51,1.07-1,2.13-1.61,3.17l3.15,1.69c.58-1.1,1.14-2.2,1.68-3.32Z" transform="translate(4.54 1.17)"/><path class="cls-2" d="M105.78,77.91c-.41,1.11-.85,2.21-1.32,3.31l3.28,1.39c.49-1.14,1-2.29,1.38-3.44Z" transform="translate(4.54 1.17)"/><path class="cls-2" d="M113.62,57.27l-3.57,0v.33c0,1,0,2-.14,3.14l3.56.3c.1-1.19.15-2.35.15-3.44Z" transform="translate(4.54 1.17)"/><path class="cls-2" d="M112.71,49.68l-3.47.81a29.48,29.48,0,0,1,.59,3.38l3.54-.42A34.15,34.15,0,0,0,112.71,49.68Z" transform="translate(4.54 1.17)"/><path class="cls-2" d="M110.15,42.47,106.94,44a32.64,32.64,0,0,1,1.33,3.17l3.36-1.2A35.11,35.11,0,0,0,110.15,42.47Z" transform="translate(4.54 1.17)"/><path class="cls-2" d="M106.07,36l-2.8,2.22c.71.9,1.38,1.83,2,2.8l3-1.9A35.85,35.85,0,0,0,106.07,36Z" transform="translate(4.54 1.17)"/><path class="cls-2" d="M100.72,30.56l-2.27,2.75c.88.74,1.73,1.52,2.54,2.34l2.54-2.51C102.64,32.24,101.7,31.38,100.72,30.56Z" transform="translate(4.54 1.17)"/><path class="cls-2" d="M94.41,26.31l-1.7,3.14a33.71,33.71,0,0,1,3,1.79l2-3C96.62,27.58,95.53,26.92,94.41,26.31Z" transform="translate(4.54 1.17)"/><path class="cls-2" d="M87.41,23.35l-1.08,3.4c1.12.35,2.21.76,3.25,1.2L91,24.67C89.83,24.18,88.63,23.74,87.41,23.35Z" transform="translate(4.54 1.17)"/><path class="cls-2" d="M80,21.71l-.45,3.54c1.15.15,2.3.35,3.42.6l.77-3.48C82.53,22.1,81.27,21.88,80,21.71Z" transform="translate(4.54 1.17)"/></svg>