<svg id="Layer_1" data-name="Layer 1" xmlns="http://www.w3.org/2000/svg" viewBox="0 0 157.83 152.08"><defs><style>.cls-1{fill:#15978f;}.cls-2{fill:#fff;}.cls-3{fill:none;stroke:#fff;stroke-linecap:round;stroke-linejoin:round;stroke-width:2px;}</style></defs><title>our-centre</title><rect class="cls-1" width="157.83" height="152.08"/><path class="cls-2" d="M48.75,122.19a1.85,1.85,0,0,1-1.85-1.85V69.58H32.11a7.17,7.17,0,0,1,0-14.33H60.43A18.11,18.11,0,0,1,78.51,73.34V87a9.18,9.18,0,0,1-8.43,9.12,1.85,1.85,0,0,1-.29-3.68,5.48,5.48,0,0,0,5-5.44V73.34a14.42,14.42,0,0,0-14.4-14.4H32.11a3.48,3.48,0,1,0,0,7H48.75a1.85,1.85,0,0,1,1.84,1.85v52.6A1.85,1.85,0,0,1,48.75,122.19Z" transform="translate(3.17 1.83)"/><path class="cls-2" d="M59,121.73a1.38,1.38,0,0,1-1.38-1.39V91.12a1.38,1.38,0,1,1,2.76,0v29.22A1.38,1.38,0,0,1,59,121.73Z" transform="translate(3.17 1.83)"/><path class="cls-2" d="M69.67,122.19a1.84,1.84,0,0,1-1.84-1.85V74.49a1.84,1.84,0,1,1,3.68,0v45.85A1.84,1.84,0,0,1,69.67,122.19Z" transform="translate(3.17 1.83)"/><path class="cls-2" d="M59.07,52.78a9,9,0,1,1,9-9A9,9,0,0,1,59.07,52.78Zm0-14.38a5.35,5.35,0,1,0,5.34,5.35A5.36,5.36,0,0,0,59.07,38.4Z" transform="translate(3.17 1.83)"/><path class="cls-3" d="M49.53,67.29" transform="translate(3.17 1.83)"/><path class="cls-2" d="M92.41,96.12a1.84,1.84,0,0,1-.07-3.68A5.45,5.45,0,0,0,97.57,87V78.22a14.42,14.42,0,0,0-14.4-14.4H71.84a1.85,1.85,0,0,1,0-3.69H83.17a18.12,18.12,0,0,1,18.09,18.09V87a9.12,9.12,0,0,1-8.77,9.14Z" transform="translate(3.17 1.83)"/><path class="cls-2" d="M81.77,121.73a1.38,1.38,0,0,1-1.38-1.39V94.67a1.38,1.38,0,0,1,2.76,0v25.67A1.38,1.38,0,0,1,81.77,121.73Z" transform="translate(3.17 1.83)"/><path class="cls-2" d="M92.41,122.19a1.85,1.85,0,0,1-1.84-1.85v-41a1.85,1.85,0,0,1,3.69,0v41A1.85,1.85,0,0,1,92.41,122.19Z" transform="translate(3.17 1.83)"/><path class="cls-2" d="M83.56,57.1a9,9,0,1,1,9-9A9,9,0,0,1,83.56,57.1Zm0-14.38a5.35,5.35,0,1,0,5.34,5.35A5.36,5.36,0,0,0,83.56,42.72Z" transform="translate(3.17 1.83)"/><path class="cls-2" d="M115.34,105a1.85,1.85,0,0,1-.08-3.69,5.43,5.43,0,0,0,5.24-5.45V85.27a14.42,14.42,0,0,0-14.41-14.4H97.42a1.84,1.84,0,1,1,0-3.68h8.67a18.1,18.1,0,0,1,18.09,18.08V95.81a9.12,9.12,0,0,1-8.77,9.14Z" transform="translate(3.17 1.83)"/><path class="cls-2" d="M104.7,121.73a1.38,1.38,0,0,1-1.38-1.39V99.1a1.38,1.38,0,0,1,2.76,0v21.24A1.38,1.38,0,0,1,104.7,121.73Z" transform="translate(3.17 1.83)"/><path class="cls-2" d="M115.34,122.19a1.84,1.84,0,0,1-1.84-1.85V86.46a1.84,1.84,0,1,1,3.68,0v33.88A1.85,1.85,0,0,1,115.34,122.19Z" transform="translate(3.17 1.83)"/><path class="cls-2" d="M107.48,64.28a9,9,0,1,1,9-9A9,9,0,0,1,107.48,64.28Zm0-14.37a5.35,5.35,0,1,0,5.35,5.34A5.35,5.35,0,0,0,107.48,49.91Z" transform="translate(3.17 1.83)"/><path class="cls-2" d="M32.3,121.73a1.38,1.38,0,0,1-1.38-1.39V67.74a1.38,1.38,0,1,1,2.76,0v52.6A1.38,1.38,0,0,1,32.3,121.73Z" transform="translate(3.17 1.83)"/><path class="cls-2" d="M32.3,58.48a1.38,1.38,0,0,1-1.38-1.38V28.5a1.38,1.38,0,0,1,1.38-1.38H47a1.39,1.39,0,0,1,1.22.74,1.37,1.37,0,0,1-.09,1.43l-3.37,4.86L48.1,39a1.37,1.37,0,0,1,.09,1.43,1.39,1.39,0,0,1-1.22.74H33.68V57.1A1.38,1.38,0,0,1,32.3,58.48Zm1.38-20.06H44.33l-2.41-3.48a1.37,1.37,0,0,1,0-1.57l2.41-3.49H33.68Z" transform="translate(3.17 1.83)"/><path class="cls-2" d="M122.34,123.37H26.79a1.84,1.84,0,1,1,0-3.68h95.55a1.84,1.84,0,0,1,0,3.68Z" transform="translate(3.17 1.83)"/></svg>