<svg id="Layer_1" data-name="Layer 1" xmlns="http://www.w3.org/2000/svg" viewBox="0 0 157.83 152.08"><defs><style>.cls-1{fill:#15978f;}.cls-2{fill:#fff;}</style></defs><title>petrochemicals</title><rect class="cls-1" width="157.83" height="152.08"/><path class="cls-2" d="M84,70.35a2.06,2.06,0,1,0,2,2.06A2.06,2.06,0,0,0,84,70.35Z" transform="translate(4.54 1.17)"/><path class="cls-2" d="M75.79,58a2.06,2.06,0,1,0,2.06,2.06A2.06,2.06,0,0,0,75.79,58Z" transform="translate(4.54 1.17)"/><path class="cls-2" d="M116.63,106.51l-26.43-47V34.6a6.18,6.18,0,0,0-2.06-12H63.44a6.18,6.18,0,0,0-2,12V59.52L35,106.51A14.41,14.41,0,0,0,47.51,128h56.56a14.41,14.41,0,0,0,12.56-21.47ZM65.24,61.07a2.11,2.11,0,0,0,.26-1V35h2.06a2.06,2.06,0,1,0,0-4.11H63.44a2.06,2.06,0,0,1,0-4.12h24.7a2.06,2.06,0,1,1,0,4.12H84A2.06,2.06,0,1,0,84,35h2V60.06a2,2,0,0,0,.27,1L98.48,82.64a39.59,39.59,0,0,0-21.57,4.41,35.41,35.41,0,0,1-27.58,2.31ZM113,118.77a10.2,10.2,0,0,1-8.89,5.09H47.51a10.29,10.29,0,0,1-9-15.33L47.27,93a39.43,39.43,0,0,0,13.06,2.22c.66,0,1.32,0,2,0A39.91,39.91,0,0,0,78.8,90.7,35.56,35.56,0,0,1,101,87.08L113,108.53A10.21,10.21,0,0,1,113,118.77Z" transform="translate(4.54 1.17)"/><path class="cls-2" d="M67.56,70.35a6.18,6.18,0,1,0,6.17,6.18A6.18,6.18,0,0,0,67.56,70.35Z" transform="translate(4.54 1.17)"/></svg>