<svg id="Layer_1" data-name="Layer 1" xmlns="http://www.w3.org/2000/svg" viewBox="0 0 157.83 152.08"><defs><style>.cls-1{fill:#15978f;}.cls-2{fill:#fff;}</style></defs><title>refining-and-trading</title><rect class="cls-1" width="157.83" height="152.08"/><path class="cls-2" d="M49.58,120H17.7V69.6A10.69,10.69,0,0,1,28.31,58.85H39A10.69,10.69,0,0,1,49.58,69.6ZM21.3,116.32H46V69.6a7.06,7.06,0,0,0-7-7.11H28.31a7.07,7.07,0,0,0-7,7.11Z" transform="translate(4.54 1.17)"/><path class="cls-2" d="M91.8,120H64.9V50.43a9,9,0,0,1,8.94-9h9a9,9,0,0,1,8.94,9Zm-23.3-3.64H88.21V50.43A5.39,5.39,0,0,0,82.86,45h-9a5.39,5.39,0,0,0-5.34,5.41Z" transform="translate(4.54 1.17)"/><path class="cls-2" d="M123.73,108.27h-6.79A10.18,10.18,0,0,1,106.84,98V71.27A10.18,10.18,0,0,1,116.94,61h6.79a10.19,10.19,0,0,1,10.11,10.24V98A10.19,10.19,0,0,1,123.73,108.27Zm-6.79-43.6a6.56,6.56,0,0,0-6.51,6.6V98a6.56,6.56,0,0,0,6.51,6.6h6.79a6.56,6.56,0,0,0,6.51-6.6V71.27a6.56,6.56,0,0,0-6.51-6.6Z" transform="translate(4.54 1.17)"/><path class="cls-2" d="M48.66,89.75V86.1c4.58,0,6.54-2.25,6.54-7.51V39.14a12.48,12.48,0,1,1,25,0V43.2h-3.6V39.14a8.88,8.88,0,1,0-17.75,0V78.59C58.8,87.81,53.29,89.75,48.66,89.75Z" transform="translate(4.54 1.17)"/><path class="cls-2" d="M90.35,107.32v-3.65c4.79,0,6.83-2.16,6.83-7.22V57a12.48,12.48,0,1,1,24.95,0v4.06h-3.59V57a8.88,8.88,0,1,0-17.76,0V96.45C100.78,103.56,97.17,107.32,90.35,107.32Z" transform="translate(4.54 1.17)"/><path class="cls-2" d="M52.61,120H14.87a1.82,1.82,0,0,1,0-3.64H52.61a1.82,1.82,0,0,1,0,3.64Z" transform="translate(4.54 1.17)"/><path class="cls-2" d="M94.74,120H61.68a1.82,1.82,0,0,1,0-3.64H94.74a1.82,1.82,0,0,1,0,3.64Z" transform="translate(4.54 1.17)"/><path class="cls-2" d="M132,120H108.49a1.82,1.82,0,0,1,0-3.64H132a1.82,1.82,0,0,1,0,3.64Z" transform="translate(4.54 1.17)"/><path class="cls-2" d="M113.12,119.2a1.81,1.81,0,0,1-1.8-1.82V106.06a1.8,1.8,0,1,1,3.6,0v11.32A1.81,1.81,0,0,1,113.12,119.2Z" transform="translate(4.54 1.17)"/><path class="cls-2" d="M127.36,119.2a1.81,1.81,0,0,1-1.8-1.82V106.14a1.8,1.8,0,1,1,3.6,0v11.24A1.81,1.81,0,0,1,127.36,119.2Z" transform="translate(4.54 1.17)"/><ellipse class="cls-2" cx="82.71" cy="59.95" rx="4.64" ry="4.71"/><ellipse class="cls-2" cx="38.18" cy="81.35" rx="4.64" ry="4.71"/></svg>