<svg id="Layer_1" data-name="Layer 1" xmlns="http://www.w3.org/2000/svg" viewBox="0 0 157.83 152.08"><defs><style>.cls-1{fill:#15978f;}.cls-2{fill:#fff;}</style></defs><title>retail-and-lubricants</title><rect class="cls-1" width="157.83" height="152.08"/><path class="cls-2" d="M59,74.55a9.14,9.14,0,0,1-9.13-9.13v-.63a2.64,2.64,0,0,1,1.63-2.45L75.89,52.08a6.53,6.53,0,0,1,2.62-.53,3.23,3.23,0,0,1,3.23,3.22v.84L65.47,71.88A9.06,9.06,0,0,1,59,74.55ZM78.51,53.33a4.85,4.85,0,0,0-1.92.39L52.21,64a.87.87,0,0,0-.54.81v.63a7.35,7.35,0,0,0,12.54,5.2L80,54.77A1.45,1.45,0,0,0,78.51,53.33Z" transform="translate(4.54 1.17)"/><path class="cls-2" d="M100.3,43V38.29A5.31,5.31,0,0,0,105.61,33V25.91a5.31,5.31,0,0,0-5.31-5.31H79.08a5.31,5.31,0,0,0-5.31,5.31V33a5.31,5.31,0,0,0,5.31,5.31v3.54h-1.4a12.18,12.18,0,0,0-4.8,1L47.75,53.38a12.35,12.35,0,0,0-7.58,11.41v53.08a12.4,12.4,0,0,0,12.38,12.38H95a12.39,12.39,0,0,0,12.38-12.38V54.21A12.37,12.37,0,0,0,100.3,43ZM77.31,33V25.91a1.77,1.77,0,0,1,1.77-1.77H100.3a1.77,1.77,0,0,1,1.77,1.77V33a1.77,1.77,0,0,1-1.77,1.77H79.08A1.77,1.77,0,0,1,77.31,33Zm5.31,5.31H96.76V42A11.43,11.43,0,0,0,95,41.83H82.62Zm21.22,79.58A8.85,8.85,0,0,1,95,126.71H52.55a8.85,8.85,0,0,1-8.84-8.84V64.79a8.81,8.81,0,0,1,5.41-8.15L74.25,46.06h0a8.75,8.75,0,0,1,3.42-.7H95a8.86,8.86,0,0,1,8.85,8.85Z" transform="translate(4.54 1.17)"/><path class="cls-2" d="M74.37,112.57H73.18a6.48,6.48,0,0,1-5.5-9.91l6.09-9.75,6.09,9.75a6.4,6.4,0,0,1,1,3.43,6.49,6.49,0,0,1-6.48,6.48Z" transform="translate(4.54 1.17)"/><path class="cls-2" d="M95,120.53H52.55a2.66,2.66,0,0,1-2.66-2.66V86a2.66,2.66,0,0,1,2.66-2.66H95A2.66,2.66,0,0,1,97.65,86v31.83A2.66,2.66,0,0,1,95,120.53ZM52.55,85.16a.88.88,0,0,0-.88.88v31.83a.89.89,0,0,0,.88.88H95a.88.88,0,0,0,.88-.88V86a.87.87,0,0,0-.88-.88Z" transform="translate(4.54 1.17)"/><path class="cls-2" d="M96.76,52.44h3.54V56H96.76Z" transform="translate(4.54 1.17)"/><path class="cls-2" d="M96.76,59.51h3.54v3.54H96.76Z" transform="translate(4.54 1.17)"/></svg>