<?xml version="1.0" encoding="utf-8"?>
<!-- Generator: Adobe Illustrator 22.1.0, SVG Export Plug-In . SVG Version: 6.00 Build 0)  -->
<svg version="1.1" xmlns="http://www.w3.org/2000/svg" xmlns:xlink="http://www.w3.org/1999/xlink" x="0px" y="0px"
	 viewBox="0 0 90 90" style="enable-background:new 0 0 90 90;" xml:space="preserve">
<style type="text/css">
	.st0{fill:#009790;}
	.st1{fill:#FFFFFF;}
</style>
<g id="Layer_1">
	<rect class="st0" width="90" height="90"/>
	<g id="Icons_x2F_32_xD7_32_x2F_Operations">
		<g id="Icon" transform="translate(1.000000, 4.000000)">
			<path id="Shape" class="st1" d="M44.7,19.8c1.4-0.6,2.9,0,3.4,1.4c0.3,0.7,1.1,1,1.8,0.7c0.7-0.3,1-1.1,0.7-1.8
				c-1.2-2.7-4.3-3.9-7.1-2.7c-1.4,0.5-2.9,0-3.4-1.4c-0.3-0.7-1.1-1-1.8-0.7c-0.7,0.3-1,1.1-0.7,1.8C39,19.8,42.1,21.1,44.7,19.8z"
				/>
			<path id="Shape_1_" class="st1" d="M31,21.6c1.1-1,2.7-0.8,3.7,0.3c0.6,0.5,1.4,0.7,1.9,0.1c0.5-0.5,0.7-1.4,0.1-1.9
				c-1.9-2.3-5.1-2.6-7.5-0.7c-1,1-2.6,0.7-3.6-0.3c-0.6-0.6-1.4-0.7-1.9-0.1c-0.5,0.6-0.7,1.4-0.1,1.9C25.4,23.2,28.7,23.5,31,21.6
				z"/>
			<path id="Shape_2_" class="st1" d="M35.7,40.6c-0.8,0-1.4,0.6-1.4,1.4c0,0.8,0.6,1.4,1.4,1.4h13.7c0.8,0,1.4-0.6,1.4-1.4
				C50.8,40.2,49.9,40.6,35.7,40.6z"/>
			<path id="Shape_3_" class="st1" d="M49.5,46.7H35.7c-0.8,0-1.4,0.6-1.4,1.4c0,0.8,0.6,1.4,1.4,1.4h13.7c0.8,0,1.4-0.6,1.4-1.4
				C50.8,47.3,50.1,46.7,49.5,46.7z"/>
			<path id="Shape_4_" class="st1" d="M49.5,52.7H35.7c-0.8,0-1.4,0.6-1.4,1.4c0,0.8,0.6,1.4,1.4,1.4h13.7c0.8,0,1.4-0.5,1.4-1.4
				S50.1,52.7,49.5,52.7z"/>
			<path id="Shape_5_" class="st1" d="M49.5,58.8H35.7c-0.8,0-1.4,0.5-1.4,1.4s0.6,1.4,1.4,1.4h13.7c0.8,0,1.4-0.5,1.4-1.4
				S50.1,58.8,49.5,58.8z"/>
			<path id="Shape_6_" class="st1" d="M76.2,64.1H75V23.9c0-3.7-3-6.6-6.6-6.6c-3.7,0-6.7,3-6.7,6.6v18.8h-3.8v-5.9
				c0-0.8-0.5-1.4-1.4-1.4h-2.6V25.1c0.7,0,1.2-0.7,1.2-1.4c0-0.8-0.5-1.4-1.4-1.4c-2.7,0-4.6,0-7.3,0c-0.8,0-1.4,0.5-1.4,1.4
				c0,0.7,0.6,1.2,1.2,1.4v10.2H43l-6.4-6.5c-0.6-0.5-1.4-0.5-1.9,0l-6,5.9l-6-5.9c-0.5-0.5-1.4-0.5-1.9,0l-7,6.9
				c-0.3,0.3-0.4,0.6-0.4,1v27.6c-0.6,0.1-1,0.7-1,1.2c0,0.8,0.5,1.4,1.4,1.4c35.4,0,26.2,0,62.4,0c0.8,0,1.4-0.5,1.4-1.4
				C77.6,64.6,77.1,64.1,76.2,64.1z M57.9,58.2h3.8v5.8h-3.8V58.2z M61.7,45.4v10.2h-3.8V45.4H61.7z M48.9,25.1h2.2v10.2h-2.2
				C48.9,35.3,48.9,25.1,48.9,25.1z M35.5,31.7l3.7,3.7h-7.3L35.5,31.7z M26.6,44.8H16.1v-6.9h10.6V44.8z M16.1,47.5h10.6v6.9H16.1
				V47.5z M21.6,31.7l3.7,3.7H18L21.6,31.7z M16.1,57.1h10.6v6.9H16.1V57.1z M29.4,64.1V38c28.2,0,18.4,0,25.8,0v26.1
				C55.2,64.1,29.4,64.1,29.4,64.1z M64.4,64.1V23.9c0-2.2,1.8-3.9,3.9-3.9s3.9,1.8,3.9,3.9v40.2H64.4z"/>
		</g>
	</g>
</g>
<g id="Layer_2">
</g>
</svg>
